# xmcd
#
# Track frame offsets:
#	150
#	13947
#	30264
#	46285
#	71621
#	86724
#	97710
#	115230
#	135539
#	153387
#	189521
#	205175
#
# Disc length: 3034 seconds
#
# Revision: 1
# Processed by: cddbd v1.5.1PL2 Copyright (c) Steve Scherf et al.
# Submitted via: audiograbber 1.81.02
#
DISCID=940bd80c
DTITLE=JT Coldfire - JT Coldfire
DYEAR=2005
DGENRE=Blues
TTITLE0=Get it on (in the back of the bar)
TTITLE1=Buddies O'Mine
TTITLE2=Feelin the Music
TTITLE3=Makin' Memories
TTITLE4=Man from San Anton'
TTITLE5=Goodbye Innocence
TTITLE6=N.281
TTITLE7=Yvonne
TTITLE8=Mumbilin' and Stumblin'
TTITLE9='Til I'm Satisfied
TTITLE10=The Rambler
TTITLE11=MFNTX (Radio edit)
EXTD=
EXTT0=
EXTT1=
EXTT2=
EXTT3=
EXTT4=
EXTT5=
EXTT6=
EXTT7=
EXTT8=
EXTT9=
EXTT10=
EXTT11=
PLAYORDER=
